<svg width="153" height="29" viewBox="0 0 153 29" fill="none" xmlns="http://www.w3.org/2000/svg">
<path d="M20.2058 17.4779L24.1024 13.5813C24.1024 10.9094 23.4344 8.34871 22.2098 6.12207L13.1362 14.5276V28.4998H14.8619C20.9295 28.4998 25.8837 23.6012 25.8837 17.4779H20.2058Z" fill="#1570EF"/>
<path d="M6.17793 11.5219L2.28131 15.4185C2.28131 18.0905 2.9493 20.6511 4.17396 22.8777L13.2475 14.4722V0.5H11.5219C5.45427 0.5 0.5 5.39861 0.5 11.5219H6.17793Z" fill="#53B1FD"/>
<path d="M52.5456 11.4347H49.3581C49.2672 10.9119 49.0996 10.4489 48.8553 10.0455C48.611 9.63636 48.307 9.28977 47.9434 9.00568C47.5797 8.72159 47.1649 8.50852 46.699 8.36648C46.2388 8.21875 45.7417 8.14489 45.2076 8.14489C44.2587 8.14489 43.4178 8.38352 42.6848 8.86079C41.9519 9.33239 41.378 10.0256 40.9632 10.9403C40.5485 11.8494 40.3411 12.9602 40.3411 14.2727C40.3411 15.608 40.5485 16.733 40.9632 17.6477C41.3837 18.5568 41.9576 19.2443 42.6848 19.7102C43.4178 20.1705 44.2559 20.4006 45.199 20.4006C45.7218 20.4006 46.2104 20.3324 46.6649 20.196C47.1252 20.054 47.5371 19.8466 47.9007 19.5739C48.2701 19.3011 48.5797 18.9659 48.8297 18.5682C49.0854 18.1705 49.2615 17.7159 49.3581 17.2045L52.5456 17.2216C52.4263 18.0511 52.1678 18.8295 51.7701 19.5568C51.378 20.2841 50.8638 20.9261 50.2274 21.483C49.5911 22.0341 48.8468 22.4659 47.9945 22.7784C47.1422 23.0852 46.1962 23.2386 45.1564 23.2386C43.6223 23.2386 42.253 22.8835 41.0485 22.1733C39.8439 21.4631 38.8951 20.4375 38.2019 19.0966C37.5087 17.7557 37.1621 16.1477 37.1621 14.2727C37.1621 12.392 37.5115 10.7841 38.2104 9.44886C38.9093 8.10795 39.861 7.08239 41.0655 6.37216C42.2701 5.66193 43.6337 5.30682 45.1564 5.30682C46.128 5.30682 47.0314 5.44318 47.8667 5.71591C48.7019 5.98864 49.4462 6.3892 50.0996 6.91761C50.753 7.44034 51.2899 8.08239 51.7104 8.84375C52.1365 9.59943 52.4149 10.4631 52.5456 11.4347ZM58.3901 5.54545V23H55.3049V5.54545H58.3901ZM67.3581 23.2557C66.0456 23.2557 64.9121 22.983 63.9576 22.4375C63.0087 21.8864 62.2786 21.108 61.7672 20.1023C61.2559 19.0909 61.0002 17.9006 61.0002 16.5312C61.0002 15.1847 61.2559 14.0028 61.7672 12.9858C62.2843 11.9631 63.0059 11.1676 63.932 10.5994C64.8581 10.0256 65.9462 9.73864 67.1962 9.73864C68.003 9.73864 68.7644 9.86932 69.4803 10.1307C70.2019 10.3864 70.8382 10.7841 71.3894 11.3239C71.9462 11.8636 72.3837 12.5511 72.7019 13.3864C73.0201 14.2159 73.1792 15.2045 73.1792 16.3523V17.2983H62.449V15.2188H70.2218C70.2161 14.6278 70.0882 14.1023 69.8382 13.642C69.5882 13.1761 69.2388 12.8097 68.7899 12.5426C68.3468 12.2756 67.8297 12.142 67.2388 12.142C66.6081 12.142 66.0542 12.2955 65.5769 12.6023C65.0996 12.9034 64.7274 13.3011 64.4604 13.7955C64.199 14.2841 64.0655 14.821 64.0598 15.4062V17.2216C64.0598 17.983 64.199 18.6364 64.4774 19.1818C64.7559 19.7216 65.1451 20.1364 65.6451 20.4261C66.1451 20.7102 66.7303 20.8523 67.4007 20.8523C67.8496 20.8523 68.2559 20.7898 68.6195 20.6648C68.9831 20.5341 69.2985 20.3438 69.5655 20.0938C69.8326 19.8438 70.0343 19.5341 70.1706 19.1648L73.0513 19.4886C72.8695 20.25 72.5229 20.9148 72.0115 21.483C71.5059 22.0455 70.8581 22.483 70.0684 22.7955C69.2786 23.1023 68.3752 23.2557 67.3581 23.2557ZM79.5563 23.2642C78.7267 23.2642 77.9796 23.1165 77.3148 22.821C76.6557 22.5199 76.133 22.0767 75.7466 21.4915C75.3659 20.9062 75.1756 20.1847 75.1756 19.3267C75.1756 18.5881 75.312 17.9773 75.5847 17.4943C75.8574 17.0114 76.2296 16.625 76.7012 16.3352C77.1728 16.0455 77.704 15.8267 78.2949 15.679C78.8915 15.5256 79.508 15.4148 80.1444 15.3466C80.9114 15.267 81.5336 15.196 82.0108 15.1335C82.4881 15.0653 82.8347 14.9631 83.0506 14.8267C83.2722 14.6847 83.383 14.4659 83.383 14.1705V14.1193C83.383 13.4773 83.1926 12.9801 82.812 12.6278C82.4313 12.2756 81.883 12.0994 81.1671 12.0994C80.4114 12.0994 79.812 12.2642 79.3688 12.5938C78.9313 12.9233 78.6358 13.3125 78.4824 13.7614L75.6017 13.3523C75.829 12.5568 76.204 11.892 76.7267 11.358C77.2495 10.8182 77.8887 10.4148 78.6444 10.1477C79.4 9.875 80.2353 9.73864 81.15 9.73864C81.7807 9.73864 82.4086 9.8125 83.0336 9.96023C83.6586 10.108 84.2296 10.3523 84.7466 10.6932C85.2637 11.0284 85.6784 11.4858 85.9909 12.0653C86.3091 12.6449 86.4682 13.3693 86.4682 14.2386V23H83.5023V21.2017H83.4C83.2125 21.5653 82.9483 21.9062 82.6074 22.2244C82.2722 22.5369 81.8489 22.7898 81.3375 22.983C80.8319 23.1705 80.2381 23.2642 79.5563 23.2642ZM80.3574 20.9972C80.9767 20.9972 81.5137 20.875 81.9682 20.6307C82.4228 20.3807 82.7722 20.0511 83.0165 19.642C83.2665 19.233 83.3915 18.7869 83.3915 18.304V16.7614C83.2949 16.8409 83.1301 16.9148 82.8972 16.983C82.6699 17.0511 82.4142 17.1108 82.1301 17.1619C81.8461 17.2131 81.5648 17.2585 81.2864 17.2983C81.008 17.3381 80.7665 17.3722 80.562 17.4006C80.1017 17.4631 79.6898 17.5653 79.3262 17.7074C78.9625 17.8494 78.6756 18.0483 78.4654 18.304C78.2551 18.554 78.15 18.8778 78.15 19.2756C78.15 19.8438 78.3574 20.2727 78.7722 20.5625C79.187 20.8523 79.7154 20.9972 80.3574 20.9972ZM89.5705 23V9.90909H92.562V12.0909H92.6983C92.937 11.3352 93.3461 10.7528 93.9256 10.3438C94.5108 9.92898 95.1784 9.72159 95.9284 9.72159C96.0989 9.72159 96.2892 9.73011 96.4995 9.74716C96.7154 9.75852 96.8944 9.77841 97.0364 9.80682V12.6449C96.9057 12.5994 96.6983 12.5597 96.4142 12.5256C96.1358 12.4858 95.8659 12.4659 95.6046 12.4659C95.0421 12.4659 94.5364 12.5881 94.0875 12.8324C93.6444 13.071 93.2949 13.4034 93.0392 13.8295C92.7836 14.2557 92.6557 14.7472 92.6557 15.304V23H89.5705ZM99.2225 23V5.54545H102.384V20.3494H110.072V23H99.2225ZM112.68 23V9.90909H115.765V23H112.68ZM114.231 8.05114C113.742 8.05114 113.322 7.8892 112.97 7.56534C112.617 7.23579 112.441 6.84091 112.441 6.38068C112.441 5.91477 112.617 5.51989 112.97 5.19602C113.322 4.86648 113.742 4.7017 114.231 4.7017C114.725 4.7017 115.146 4.86648 115.492 5.19602C115.845 5.51989 116.021 5.91477 116.021 6.38068C116.021 6.84091 115.845 7.23579 115.492 7.56534C115.146 7.8892 114.725 8.05114 114.231 8.05114ZM122.023 15.3295V23H118.938V9.90909H121.887V12.1335H122.04C122.341 11.4006 122.821 10.8182 123.48 10.3864C124.145 9.95455 124.966 9.73864 125.943 9.73864C126.847 9.73864 127.634 9.93182 128.304 10.3182C128.98 10.7045 129.503 11.2642 129.872 11.9972C130.247 12.7301 130.432 13.6193 130.426 14.6648V23H127.341V15.142C127.341 14.267 127.114 13.5824 126.659 13.0881C126.21 12.5937 125.588 12.3466 124.793 12.3466C124.253 12.3466 123.773 12.4659 123.352 12.7045C122.938 12.9375 122.611 13.2756 122.372 13.7188C122.139 14.1619 122.023 14.6989 122.023 15.3295ZM136.375 18.892L136.367 15.1676H136.861L141.566 9.90909H145.171L139.384 16.3523H138.744L136.375 18.892ZM133.563 23V5.54545H136.648V23H133.563ZM141.779 23L137.517 17.0426L139.597 14.8693L145.469 23H141.779Z" fill="#101828"/>
<path d="M149.127 23.1875C148.61 23.1875 148.167 23.0057 147.798 22.642C147.428 22.2784 147.247 21.8352 147.252 21.3125C147.247 20.8011 147.428 20.3636 147.798 20C148.167 19.6364 148.61 19.4545 149.127 19.4545C149.627 19.4545 150.062 19.6364 150.431 20C150.806 20.3636 150.997 20.8011 151.002 21.3125C150.997 21.6591 150.906 21.9744 150.73 22.2585C150.559 22.5426 150.332 22.7699 150.048 22.9403C149.769 23.1051 149.463 23.1875 149.127 23.1875Z" fill="#528BFF"/>
</svg>
